<?xml version="1.0" encoding="UTF-8"?>
<svg version="1.1" xmlns="http://www.w3.org/2000/svg" width="677" height="369">
<path d="M0 0 C1.921875 0.20703125 1.921875 0.20703125 4 1 C5.203125 2.57421875 5.203125 2.57421875 6.25 4.6875 C6.6728125 5.50347656 7.095625 6.31945312 7.53125 7.16015625 C8.0159375 8.09730469 8.500625 9.03445312 9 10 C10.23903532 12.21450391 11.48993837 14.42239227 12.75 16.625 C13.08580078 17.21385986 13.42160156 17.80271973 13.76757812 18.40942383 C16.73367906 23.58970524 19.82042362 28.69378468 22.91601562 33.79736328 C24.83084882 36.97561751 26.64761983 40.15309304 28.25 43.5 C29.56801667 46.13603335 30.77507046 48.17238423 32.5 50.5 C34.62541826 53.37027783 36.21877835 56.3239577 37.765625 59.55078125 C39.42543374 62.84413593 41.23724283 66.04659714 43.0625 69.25 C43.40321533 69.85271729 43.74393066 70.45543457 44.0949707 71.07641602 C45.52367239 73.57238256 46.94175621 75.92755358 48.74609375 78.171875 C50 80 50 80 50 84 C50.66 84 51.32 84 52 84 C53.40234375 85.9765625 53.40234375 85.9765625 54.9375 88.625 C55.47117187 89.54410156 56.00484375 90.46320313 56.5546875 91.41015625 C58.12979395 94.23257673 59.57936114 97.09695538 61 100 C63.51104464 104.75875875 66.19878145 109.35966276 69.125 113.875 C73.94217749 121.35319476 78.30793049 129.09408098 82.73681641 136.80566406 C84.37367954 139.6491364 86.02913878 142.48152181 87.6875 145.3125 C90.07728881 149.39717449 92.41984638 153.50604158 94.75 157.625 C98.39007163 164.0502024 102.23393079 170.34347074 106.14355469 176.60791016 C108.68775156 180.71698267 110.98940914 184.85637124 113.10644531 189.20068359 C114.28909559 191.58214057 115.62026588 193.85293783 117 196.125 C117.77150391 197.39730469 117.77150391 197.39730469 118.55859375 198.6953125 C119.68228699 200.49200359 120.86194196 202.25373376 122.0625 204 C123.70108105 206.53715775 125.00220921 208.97758041 126.3125 211.6875 C128.69130046 216.6012097 131.56622684 221.05209299 134.64453125 225.5546875 C136 228 136 228 136 232 C47.23 232 -41.54 232 -133 232 C-132.06675271 227.33376356 -130.6320658 224.22842402 -128.25 220.25 C-127.5138714 218.99375405 -126.77819298 217.7372442 -126.04296875 216.48046875 C-125.6876709 215.8776709 -125.33237305 215.27487305 -124.96630859 214.65380859 C-123.79215694 212.64428275 -122.6728459 210.60787402 -121.5625 208.5625 C-117.24076917 200.74291344 -112.52015474 193.13851911 -107.875 185.5078125 C-102.82641747 177.18899251 -98.00640509 168.75335459 -93.23510742 160.27270508 C-88.88805937 152.55211081 -84.48963396 144.86233206 -80.0625 137.1875 C-79.44810059 136.12104248 -78.83370117 135.05458496 -78.20068359 133.95581055 C-75.45426301 129.20031628 -72.68756939 124.46050117 -69.8515625 119.7578125 C-67.25288473 115.44683102 -64.75983658 111.08579978 -62.3125 106.6875 C-59.52998224 101.6979938 -56.68630299 96.7645149 -53.7109375 91.88671875 C-50.21158882 86.12609505 -46.89445877 80.2762554 -43.60791016 74.39306641 C-40.30778465 68.50460717 -36.89555653 62.68649363 -33.45678711 56.87817383 C-31.35403711 53.32123188 -29.28641809 49.75571491 -27.3125 46.125 C-24.97225257 41.83593442 -22.32414103 37.76198009 -19.6484375 33.67578125 C-17.91100752 30.85554539 -16.46750137 27.96878155 -15 25 C-2.49333333 2.49333333 -2.49333333 2.49333333 0 0 Z M1 14 C0.06301081 15.63973108 -0.87391351 17.27949924 -1.81054688 18.91943359 C-2.59718365 20.29540211 -3.38492637 21.670739 -4.17382812 23.04541016 C-5.37013234 25.13204458 -6.5604241 27.22202379 -7.75 29.3125 C-8.16121094 30.02728516 -8.57242188 30.74207031 -8.99609375 31.47851562 C-11.21343568 35.01509964 -11.21343568 35.01509964 -12 39 C-12.66 39 -13.32 39 -14 39 C-14.54269531 40.02480469 -15.08539063 41.04960938 -15.64453125 42.10546875 C-16.36711745 43.46618303 -17.08977762 44.82685804 -17.8125 46.1875 C-18.16892578 46.86103516 -18.52535156 47.53457031 -18.89257812 48.22851562 C-22.39144771 54.80895842 -26.30422346 61.04216582 -30.37890625 67.28125 C-31.89145823 69.81796368 -32.92762239 72.25802636 -34 75 C-34.90323616 76.62370606 -35.84228707 78.22790421 -36.8125 79.8125 C-37.61494141 81.12927734 -37.61494141 81.12927734 -38.43359375 82.47265625 C-39.73543489 84.5731331 -41.05121194 86.66335102 -42.375 88.75 C-45.39235685 93.54682371 -48.15824955 98.48815423 -50.95703125 103.4140625 C-54.50417176 109.65369131 -58.14151657 115.84139329 -61.78125 122.02734375 C-65.13629843 127.7441697 -68.40241018 133.49439357 -71.54296875 139.33203125 C-74.57808951 144.88963844 -77.78311217 150.33399595 -81.0625 155.75 C-85.60303655 163.28207299 -90.01197466 170.88748649 -94.40234375 178.5078125 C-96.00275329 181.28373371 -97.61608733 184.05067621 -99.25390625 186.8046875 C-100.21103516 188.41730469 -100.21103516 188.41730469 -101.1875 190.0625 C-101.73792969 190.98160156 -102.28835937 191.90070313 -102.85546875 192.84765625 C-104.15650222 194.88802104 -104.15650222 194.88802104 -104 197 C-104.66 197 -105.32 197 -106 197 C-106.35191406 197.72703125 -106.70382813 198.4540625 -107.06640625 199.203125 C-110.32163835 205.83257942 -113.81691356 212.20808638 -117.6796875 218.50390625 C-119.23378495 220.97134877 -119.23378495 220.97134877 -119 224 C-90.10493172 224.15428543 -61.20983715 224.30230606 -32.31469917 224.4429636 C-29.63834752 224.45601331 -26.96199598 224.46908631 -24.28564453 224.48217773 C-23.28788035 224.48705712 -23.28788035 224.48705712 -22.26995932 224.49203508 C-12.20030285 224.54138452 -2.13066616 224.5939145 7.93896484 224.64819336 C19.64030008 224.71123343 31.34164755 224.77041582 43.04302514 224.82505554 C49.23302626 224.85409216 55.42300474 224.88499958 61.61297226 224.92053413 C67.45201177 224.95399298 73.29105446 224.98225168 79.1301384 225.00670624 C81.26083825 225.01651289 83.39153073 225.02813836 85.52220917 225.04183006 C98.05728091 225.12115164 110.49292035 224.86750824 123 224 C121.71590837 220.72707126 120.35571527 217.70470565 118.57421875 214.671875 C117.87329102 213.47111328 117.87329102 213.47111328 117.15820312 212.24609375 C116.67287109 211.42238281 116.18753906 210.59867188 115.6875 209.75 C111.17005418 202.04268427 106.79279508 194.27185102 102.5 186.4375 C99.64667955 181.30683994 96.53462768 176.36513207 93.33984375 171.44140625 C89.85429981 166.04072827 86.61531473 160.58827264 83.58203125 154.921875 C81.53501879 151.1412199 79.390025 147.4198506 77.24682617 143.69311523 C74.40611602 138.73944698 71.63655617 133.74813709 68.875 128.75 C65.75849122 123.11481444 62.58675586 117.53066129 59.234375 112.03125 C56.78252548 107.99656091 54.48690534 103.87307164 52.1875 99.75 C50.43909383 96.67829033 48.54337417 93.7182097 46.625 90.75 C43.75645323 86.27701182 41.17697231 81.7206759 38.67578125 77.03515625 C36.29158857 72.71693314 33.73286672 68.50889495 31.15869141 64.30175781 C28.91341322 60.610754 26.92939272 56.86894013 25 53 C23.66482711 50.71464273 22.31493646 48.44684844 20.9375 46.1875 C20.13997567 44.86888209 19.34312773 43.54985491 18.546875 42.23046875 C18.13244141 41.54388184 17.71800781 40.85729492 17.29101562 40.14990234 C15.067193 36.44661527 12.87649232 32.72394896 10.6875 29 C10.27943115 28.30672607 9.8713623 27.61345215 9.45092773 26.89916992 C6.93530477 22.61729145 4.45603911 18.31633418 2 14 C1.67 14 1.34 14 1 14 Z " fill="#77C99F" transform="translate(337,59)"/>
<path d="M0 0 C0.66 0 1.32 0 2 0 C4.25336079 3.17604613 6.08660941 6.61085603 8 10 C8.639375 11.0725 9.27875 12.145 9.9375 13.25 C11.22611917 16.58524962 10.89474173 18.58371338 10 22 C9.34 22 8.68 22 8 22 C7.86658203 23.03060547 7.86658203 23.03060547 7.73046875 24.08203125 C6.83486209 27.65966855 5.18274786 30.55046288 3.3125 33.6875 C2.95236816 34.30326904 2.59223633 34.91903809 2.22119141 35.5534668 C1.15427371 37.37309895 0.07778009 39.18678746 -1 41 C-1.54527344 41.93070313 -2.09054687 42.86140625 -2.65234375 43.8203125 C-5.46356734 48.5777678 -8.42147357 53.18198041 -11.60546875 57.69921875 C-13.04693568 60.0774373 -14.0727971 62.51953764 -15.13598633 65.08374023 C-16.7255587 68.60918628 -18.75802557 71.87813621 -20.75 75.1875 C-21.64220108 76.68473259 -22.53412653 78.18212947 -23.42578125 79.6796875 C-23.86229004 80.41026367 -24.29879883 81.14083984 -24.74853516 81.89355469 C-27.04915342 85.76591802 -29.28494124 89.67573302 -31.52734375 93.58203125 C-32.9010568 95.83754419 -34.41593067 97.89092483 -36 100 C-36.67441131 101.6635479 -37.3400321 103.33066942 -38 105 C-39.27831575 107.36907938 -40.63469111 109.67897488 -42 112 C-42.66 112 -43.32 112 -44 112 C-44 112.66 -44 113.32 -44 114 C-41.41324275 113.96691357 -38.83502562 113.89971107 -36.25 113.8125 C-35.52039063 113.80669922 -34.79078125 113.80089844 -34.0390625 113.79492188 C-30.28338602 113.64128056 -28.4017052 113.38241803 -25.640625 110.75390625 C-24.14435364 108.2423079 -22.74945967 105.76743835 -21.5 103.125 C-18.67717119 97.31632187 -15.63554396 91.90192046 -12 86.5625 C-9.65291381 83.09494553 -7.73007611 79.60006652 -5.92578125 75.828125 C-4.52463496 73.06130448 -2.73100804 70.57028467 -1 68 C0.20336581 65.91040088 1.36062053 63.79816008 2.51953125 61.68359375 C4.96634325 57.2483435 7.4801246 52.85206291 10.01171875 48.46484375 C11.26460938 46.28151569 12.49911353 44.08743316 13.70703125 41.87890625 C14.21621094 40.97011719 14.72539062 40.06132812 15.25 39.125 C15.90742188 37.92230469 15.90742188 37.92230469 16.578125 36.6953125 C17.04734375 36.13585937 17.5165625 35.57640625 18 35 C19.32 35 20.64 35 22 35 C23.69763144 36.99936485 24.98488486 38.77277699 26.3125 41 C26.66916748 41.59506348 27.02583496 42.19012695 27.39331055 42.80322266 C29.19559287 46.00293623 30.60614273 48.66041944 30.3125 52.375 C29.09175437 55.74658316 27.67385189 58.22277815 25.45703125 61.02734375 C22.49004716 65.04430612 20.33896765 69.59871679 18 74 C13.61428461 82.11056956 8.88783265 90.02200999 4.20166016 97.9609375 C2.56385082 100.74008898 0.93699823 103.52555044 -0.6875 106.3125 C-1.50927734 107.72208984 -1.50927734 107.72208984 -2.34765625 109.16015625 C-3.50314374 111.14606501 -4.6566262 113.13314111 -5.80859375 115.12109375 C-6.40800781 116.15363281 -7.00742187 117.18617188 -7.625 118.25 C-8.15351563 119.16265625 -8.68203125 120.0753125 -9.2265625 121.015625 C-9.81179688 122.00046875 -10.39703125 122.9853125 -11 124 C-11.2626918 124.66461243 -11.52538361 125.32922485 -11.79603577 126.01397705 C-12.94508683 128.51003496 -13.9707232 130.12968025 -16 132 C-20.45798391 133.14855397 -24.81738363 132.93068051 -29.39453125 132.78125 C-30.69702316 132.76993042 -31.99951508 132.75861084 -33.34147644 132.74694824 C-36.79340903 132.71649741 -40.24261969 132.63801005 -43.69348145 132.54931641 C-47.2191078 132.46726369 -50.74517708 132.43089626 -54.27148438 132.390625 C-61.18210317 132.30499796 -68.09092071 132.16858522 -75 132 C-74.32835569 128.23809388 -73.50686162 125.9127764 -71.25 122.8125 C-68.53134704 118.89634514 -66.37054497 114.92847427 -64.30078125 110.640625 C-62.02076713 106.01212787 -59.49726118 101.51394977 -57 97 C-56.34 97 -55.68 97 -55 97 C-54.73832031 96.11828125 -54.47664063 95.2365625 -54.20703125 94.328125 C-53.02223276 91.06130197 -51.62489581 88.6195796 -49.6875 85.75 C-46.85807375 81.42986363 -44.47582464 77.08471504 -42.23046875 72.44140625 C-40.57448303 69.1557203 -38.66598058 66.05461502 -36.74609375 62.91796875 C-34.12478336 58.53738964 -31.64652706 54.07824367 -29.15917969 49.62060547 C-28.7934082 48.96592285 -28.42763672 48.31124023 -28.05078125 47.63671875 C-27.56605347 46.76599731 -27.56605347 46.76599731 -27.0715332 45.87768555 C-25.31344639 42.79692782 -23.46701291 39.76988183 -21.62744141 36.73730469 C-17.14196221 29.32352207 -12.9047831 21.77912782 -8.6796875 14.21484375 C-2.75507806 3.66512647 -2.75507806 3.66512647 0 0 Z " fill="#111210" transform="translate(305,144)"/>
<path d="M0 0 C1.890625 0.17578125 1.890625 0.17578125 4 1 C5.421875 2.79296875 5.421875 2.79296875 6.75 5.1875 C7.26304687 6.09371094 7.77609375 6.99992187 8.3046875 7.93359375 C8.86414063 8.94550781 9.42359375 9.95742187 10 11 C11.29006335 13.25091966 12.58181498 15.50087233 13.875 17.75 C14.90596164 19.5580684 15.93475963 21.367356 16.96337891 23.17675781 C18.66018796 26.16115961 20.36060989 29.14349327 22.0625 32.125 C22.3927417 32.7037085 22.7229834 33.28241699 23.06323242 33.87866211 C25.24916266 37.70309805 27.46163862 41.51119128 29.6875 45.3125 C31.60237869 48.58410888 33.49105976 51.86305312 35.3125 55.1875 C38.98826757 61.85968537 42.91790722 68.38816335 46.78955078 74.94775391 C50.85785124 81.84532019 54.89303245 88.75454762 58.7421875 95.77734375 C60.1626648 98.28744183 61.6731193 100.73303273 63.1875 103.1875 C65.32162142 106.70413709 66.94514431 109.99154838 68 114 C68.66 114 69.32 114 70 114 C70.96189997 115.72718516 71.91936508 117.45684058 72.875 119.1875 C73.40867187 120.15042969 73.94234375 121.11335938 74.4921875 122.10546875 C75.8423678 124.69739518 76.97098329 127.26761098 78 130 C59.53361946 131.9527897 59.53361946 131.9527897 54.03515625 127.71484375 C51.98127846 124.56285308 50.46007263 121.46464748 49 118 C47.99589906 116.15744929 46.97572141 114.32354274 45.9375 112.5 C45.45796875 111.59765625 44.9784375 110.6953125 44.484375 109.765625 C40.76383116 102.83366438 36.67305707 96.10664261 32.60644531 89.3737793 C29.10956197 83.58142722 25.7249991 77.76136197 22.51953125 71.80078125 C17.56262819 62.66427869 12.29413652 53.7355031 6.76171875 44.9375 C5.01331287 42.02219795 3.47952571 39.05920392 2 36 C-1.41418456 39.16891268 -3.41820297 42.63122725 -5 47 C-5.12185772 52.72731306 -1.84757162 57.22593915 1 62 C1.77043912 63.31196728 2.5398888 64.62451588 3.30859375 65.9375 C5.03582434 68.88420746 6.76771215 71.82809619 8.50390625 74.76953125 C17.10491981 89.34192831 17.10491981 89.34192831 20.625 95.75 C22.58142763 99.30889631 24.7008974 102.73369373 26.87890625 106.16015625 C28.42044607 108.69000034 29.67566426 111.35132852 31 114 C32.32346506 116.0065438 33.65729179 118.00628175 35 120 C39 126.3890785 39 126.3890785 39 130 C32.09010907 131.05374406 24.79788861 132.02250134 18 130 C13.33997358 126.35993178 11.23674474 120.63009398 9.00878906 115.30957031 C7.47143585 111.78987975 5.52325143 108.54621855 3.5625 105.25 C2.94503906 104.16203125 2.32757813 103.0740625 1.69140625 101.953125 C0.16058387 99.28037277 -1.41048722 96.6380919 -3 94 C-4.14887399 92.04344894 -5.29457289 90.08503089 -6.4375 88.125 C-7.01371094 87.13757813 -7.58992188 86.15015625 -8.18359375 85.1328125 C-10.61316084 80.94246237 -13.01200688 76.73493715 -15.40893555 72.52587891 C-16.98021924 69.76683158 -18.55259306 67.0084073 -20.125 64.25 C-20.66253906 63.30511719 -21.20007813 62.36023438 -21.75390625 61.38671875 C-22.27082031 60.48050781 -22.78773438 59.57429688 -23.3203125 58.640625 C-23.78711426 57.82110352 -24.25391602 57.00158203 -24.73486328 56.15722656 C-25.76416047 54.4021378 -26.87138079 52.69292881 -28 51 C-27.67185788 47.02291753 -26.17897278 44.24587398 -24.125 40.875 C-23.18914062 39.31652344 -23.18914062 39.31652344 -22.234375 37.7265625 C-21.88310547 37.14422852 -21.53183594 36.56189453 -21.16992188 35.96191406 C-18.38602063 31.29341857 -15.70455004 26.56387862 -12.99658203 21.85107422 C-10.44355756 17.42835924 -7.82368297 13.06509959 -5.07568359 8.76049805 C-3.54662373 6.25798994 -2.28485113 3.63394482 -1 1 C-0.67 0.67 -0.34 0.34 0 0 Z " fill="#111110" transform="translate(337,89)"/>
<path d="M0 0 C0.91709747 -0.01620895 1.83419495 -0.03241791 2.77908325 -0.04911804 C11.24927626 -0.18942719 19.7205277 -0.2674353 28.19163036 -0.32803631 C33.886905 -0.36903718 39.58046403 -0.42945343 45.27490234 -0.53710938 C50.77459586 -0.64074448 56.27275799 -0.69542059 61.77337074 -0.71549416 C63.8703051 -0.73144771 65.967182 -0.76472299 68.06355858 -0.81564903 C84.52912675 -1.19646293 84.52912675 -1.19646293 88.8430481 2.4618988 C90.41716134 5.05283227 91.37651877 7.38442581 92.26098633 10.2722168 C93.41807887 12.09084381 94.58270236 13.90474748 95.76098633 15.7097168 C98.59786794 20.14195634 101.17151969 24.65568486 103.64379883 29.29956055 C104.85528996 31.52648024 106.09433636 33.71653788 107.37817383 35.90112305 C107.74177002 36.52269287 108.10536621 37.1442627 108.47998047 37.78466797 C109.19222696 38.99782458 109.90990611 40.20781315 110.63378906 41.4140625 C112.66181407 44.88275008 113.44771969 47.20588359 114.26098633 51.2722168 C64.43098633 51.2722168 14.60098633 51.2722168 -36.73901367 51.2722168 C-35.9690014 47.42215543 -35.41289947 45.26445106 -33.67651367 41.9597168 C-33.31428711 41.26233398 -32.95206055 40.56495117 -32.57885742 39.84643555 C-32.16313477 39.06719727 -32.16313477 39.06719727 -31.73901367 38.2722168 C-31.07901367 38.2722168 -30.41901367 38.2722168 -29.73901367 38.2722168 C-29.07901367 36.6222168 -28.41901367 34.9722168 -27.73901367 33.2722168 C8.89098633 33.2722168 45.52098633 33.2722168 83.26098633 33.2722168 C81.28098633 29.9722168 79.30098633 26.6722168 77.26098633 23.2722168 C76.27098633 21.2922168 76.27098633 21.2922168 75.26098633 19.2722168 C44.57098633 18.9422168 13.88098633 18.6122168 -17.73901367 18.2722168 C-16.79552384 13.55476761 -15.66699738 11.06222248 -13.23901367 7.0222168 C-12.60995117 5.96518555 -11.98088867 4.9081543 -11.33276367 3.8190918 C-8.37394736 -0.9092127 -5.23454616 0.07245234 0 0 Z " fill="#0E0E0D" transform="translate(332.739013671875,224.727783203125)"/>
<path d="M0 0 C5.54271451 7.21725062 10.11636711 15.04538487 14.40625 23.0546875 C20.57419082 34.45328402 27.1539499 45.67134598 33.875 56.75 C36.94889923 61.84294832 39.84234337 67.03251911 42.73364258 72.23046875 C44.73738873 75.81706721 46.80005012 79.3177607 49.0625 82.75 C51 86 51 86 51 90 C-37.77 90 -126.54 90 -218 90 C-217.11562689 85.57813443 -216.34638258 82.77097201 -214 79 C-212.33607955 78.32650839 -210.66967972 77.6590841 -209 77 C-208.10613836 74.45224694 -208.10613836 74.45224694 -208 72 C-205 73 -205 73 -204 75 C-204 77.31 -204 79.62 -204 82 C-124.14 82 -44.28 82 38 82 C31.07 70.12 31.07 70.12 24 58 C21.49040241 53.48272434 18.98277648 48.96856707 16.5 44.4375 C13.59080621 39.19546213 10.39911996 34.14531728 7.125 29.125 C6.568125 28.073125 6.568125 28.073125 6 27 C7 25 7 25 10 24 C10 22.68 10 21.36 10 20 C9.34 19.67 8.68 19.34 8 19 C8 18.34 8 17.68 8 17 C7.34 17 6.68 17 6 17 C6 15.68 6 14.36 6 13 C5.01 12.67 4.02 12.34 3 12 C3.66 11.67 4.32 11.34 5 11 C4.01 10.34 3.02 9.68 2 9 C2 8.01 2 7.02 2 6 C1.01 5.505 1.01 5.505 0 5 C0 3.35 0 1.7 0 0 Z " fill="#88CEAC" transform="translate(422,201)"/>
<path d="M0 0 C0.45375 0.66 0.9075 1.32 1.375 2 C2.179375 2.99 2.179375 2.99 3 4 C3.66 4 4.32 4 5 4 C5.84384675 5.41042956 6.67469496 6.82864132 7.5 8.25 C7.9640625 9.03890625 8.428125 9.8278125 8.90625 10.640625 C10 13 10 13 10 17 C-78.11 17 -166.22 17 -257 17 C-257 16.34 -257 15.68 -257 15 C-251.39 15 -245.78 15 -240 15 C-240 14.34 -240 13.68 -240 13 C-160.47 12.67 -80.94 12.34 1 12 C0.34 10.35 -0.32 8.7 -1 7 C-1 6.01 -1 5.02 -1 4 C-1.66 4 -2.32 4 -3 4 C-2.67 3.01 -2.34 2.02 -2 1 C-1.34 0.67 -0.68 0.34 0 0 Z " fill="#54B98B" transform="translate(462,273)"/>
<path d="M0 0 C0.66 0 1.32 0 2 0 C2 0.99 2 1.98 2 3 C2.66 3 3.32 3 4 3 C4.309375 4.2065625 4.309375 4.2065625 4.625 5.4375 C5.07875 6.283125 5.5325 7.12875 6 8 C9.05272465 8.89830839 9.05272465 8.89830839 12 9 C12.33 8.34 12.66 7.68 13 7 C14.13031603 8.72569639 15.25403107 10.45571739 16.375 12.1875 C17.31472656 13.63189453 17.31472656 13.63189453 18.2734375 15.10546875 C19.82458835 17.70592752 20.89634997 20.19411009 22 23 C23.11836732 24.74188778 23.11836732 24.74188778 24.375 26.3125 C26.53724159 29.24562773 28.18108778 32.2394163 29.75390625 35.53515625 C32.59291065 41.15086716 35.84923114 46.55498197 39 52 C38.34 52.66 37.68 53.32 37 54 C36.67 53.01 36.34 52.02 36 51 C35.01 50.505 35.01 50.505 34 50 C34 48.68 34 47.36 34 46 C33.34 46 32.68 46 32 46 C33.32 50.62 34.64 55.24 36 60 C35.01 60.495 35.01 60.495 34 61 C33.50693359 60.06994141 33.50693359 60.06994141 33.00390625 59.12109375 C29.57176974 52.73118106 25.94484995 46.48996137 22.16040039 40.30444336 C19.914356 36.61243068 17.93196062 32.86896552 16 29 C14.60217367 26.6106922 13.18987972 24.23842492 11.75 21.875 C10.95397116 20.55626468 10.15840478 19.23725012 9.36328125 17.91796875 C8.96834473 17.2636084 8.5734082 16.60924805 8.16650391 15.93505859 C6.41254341 13.02549582 4.66881338 10.110634 2.9375 7.1875 C2.36902344 6.23230469 1.80054688 5.27710937 1.21484375 4.29296875 C0 2 0 2 0 0 Z " fill="#7DCAA3" transform="translate(345,83)"/>
<path d="M0 0 C0.680625 0.99 0.680625 0.99 1.375 2 C1.91125 2.66 2.4475 3.32 3 4 C3.66 4 4.32 4 5 4 C5.83848804 5.45537568 6.67063934 6.91440373 7.5 8.375 C8.19609375 9.59316406 8.19609375 9.59316406 8.90625 10.8359375 C10 13 10 13 10 15 C6.64121941 16.6793903 2.84959035 16.14127179 -0.84375 16.1328125 C-1.7488179 16.13413177 -2.6538858 16.13545105 -3.58638 16.1368103 C-6.55762069 16.1387376 -9.52876877 16.13236549 -12.5 16.125 C-13.5056601 16.12411377 -14.51132019 16.12322754 -15.54745483 16.12231445 C-34.04554799 16.10315709 -52.51592036 15.70494106 -71 15 C-71.33 14.34 -71.66 13.68 -72 13 C-47.6622904 12.35638073 -23.34766408 11.81348283 1 12 C0.505 10.8553125 0.505 10.8553125 0 9.6875 C-1 7 -1 7 -1 4 C-1.66 4 -2.32 4 -3 4 C-2.67 3.01 -2.34 2.02 -2 1 C-1.34 0.67 -0.68 0.34 0 0 Z " fill="#55C391" transform="translate(462,273)"/>
<path d="M0 0 C0.33 0.99 0.66 1.98 1 3 C2.32 3 3.64 3 5 3 C5.50789063 3.89460938 6.01578125 4.78921875 6.5390625 5.7109375 C7.2342948 6.93233732 7.92961335 8.15368805 8.625 9.375 C8.98529297 10.00970215 9.34558594 10.6444043 9.71679688 11.29833984 C12.3482384 15.91500606 15.09859587 20.44089675 17.96875 24.9140625 C19 27 19 27 19 31 C16.125 31.1875 16.125 31.1875 13 31 C11 28 11 28 11 25 C10.34 25 9.68 25 9 25 C9 24.01 9 23.02 9 22 C8.401875 21.95875 7.80375 21.9175 7.1875 21.875 C3.88991462 20.55596585 3.40963515 18.13964193 2 15 C1.34 14.34 0.68 13.68 0 13 C-2.05396726 13.40929986 -2.05396726 13.40929986 -4 14 C-4.33 13.67 -4.66 13.34 -5 13 C-4.58667797 8.7014509 -3.9401116 4.8802232 -2 1 C-1.34 0.67 -0.68 0.34 0 0 Z " fill="#78C9A2" transform="translate(338,61)"/>
<path d="M0 0 C1.86328125 0.1484375 1.86328125 0.1484375 4 1 C8.16960853 6.09727319 10.60406861 11.40114343 11 18 C11.20643199 20.25328412 11.20643199 20.25328412 12 22 C13.9837767 23.28436734 13.9837767 23.28436734 16 24 C16 25.98 16 27.96 16 30 C16.66 30 17.32 30 18 30 C18 30.66 18 31.32 18 32 C19.485 32.495 19.485 32.495 21 33 C20.67 34.65 20.34 36.3 20 38 C18.68 38 17.36 38 16 38 C8.82415801 25.4134964 8.82415801 25.4134964 7.75 20.25 C7.5025 19.1775 7.255 18.105 7 17 C6.01 16.67 5.02 16.34 4 16 C3.3125 13.9375 3.3125 13.9375 3 12 C2.34 12 1.68 12 1 12 C0.87625 11.195625 0.7525 10.39125 0.625 9.5625 C0.315625 8.2940625 0.315625 8.2940625 0 7 C-0.66 6.67 -1.32 6.34 -2 6 C-1.125 1.125 -1.125 1.125 0 0 Z " fill="#5BBF8F" transform="translate(412,188)"/>
<path d="M0 0 C0.33 0.99 0.66 1.98 1 3 C1.88171875 3.37898437 1.88171875 3.37898437 2.78125 3.765625 C6.0895906 5.60618069 7.5903176 8.59543932 9.5 11.75 C10.2599627 12.97424026 11.0203758 14.19820104 11.78125 15.421875 C12.14766602 16.02370605 12.51408203 16.62553711 12.89160156 17.24560547 C13.94664354 18.91554637 15.10428482 20.51934359 16.265625 22.1171875 C18.14685707 25.24410027 18.44400961 26.78582221 18.25 30.375 C18.21390625 31.24898438 18.1778125 32.12296875 18.140625 33.0234375 C18.07101562 34.00183594 18.07101562 34.00183594 18 35 C17.34 35 16.68 35 16 35 C13 31.53846154 13 31.53846154 13 29 C12.01 29 11.02 29 10 29 C9.81824219 28.39671875 9.63648438 27.7934375 9.44921875 27.171875 C8.10498371 22.89789693 6.91950945 19.47560649 4 16 C4 15.34 4 14.68 4 14 C3.360625 13.443125 2.72125 12.88625 2.0625 12.3125 C-0.65472711 9.26591202 -0.7808496 7.01775734 -1 3 C-0.67 2.01 -0.34 1.02 0 0 Z " fill="#7CC49F" transform="translate(442,239)"/>
<path d="M0 0 C0.66 0.33 1.32 0.66 2 1 C1.43162355 10.17241988 1.43162355 10.17241988 -2 14 C-3.03041427 15.98450156 -4.03685937 17.98199105 -5 20 C-5.99 20 -6.98 20 -8 20 C-8 20.99 -8 21.98 -8 23 C-8.66 23 -9.32 23 -10 23 C-10.33 24.32 -10.66 25.64 -11 27 C-11.99 27 -12.98 27 -14 27 C-14.66 28.32 -15.32 29.64 -16 31 C-16.81098783 28.16900568 -17.2085587 26.54758563 -16.14453125 23.75390625 C-15.70496094 23.03074219 -15.26539063 22.30757812 -14.8125 21.5625 C-14.34972656 20.78648437 -13.88695312 20.01046875 -13.41015625 19.2109375 C-12.22047471 17.34567504 -11.00357462 15.51004022 -9.75 13.6875 C-8.18413966 11.2827859 -7.60601542 9.72706939 -7 7 C-6.34 6.67 -5.68 6.34 -5 6 C-4.505 5.175 -4.01 4.35 -3.5 3.5 C-2 1 -2 1 0 0 Z " fill="#6CC398" transform="translate(293,141)"/>
<path d="M0 0 C0 2.31 0 4.62 0 7 C-0.99 7.33 -1.98 7.66 -3 8 C-3 9.32 -3 10.64 -3 12 C-3.99 12.495 -3.99 12.495 -5 13 C-5.68729254 15.11846285 -5.68729254 15.11846285 -6.125 17.5625 C-6.29257812 18.38878906 -6.46015625 19.21507813 -6.6328125 20.06640625 C-6.75398438 20.70449219 -6.87515625 21.34257813 -7 22 C-8.32 22 -9.64 22 -11 22 C-11.33 22.99 -11.66 23.98 -12 25 C-12.99 25 -13.98 25 -15 25 C-15.7161336 18.43544196 -14.41239433 15.38484536 -10.515625 10.11328125 C-8.81258457 7.88318236 -8.81258457 7.88318236 -7.4375 4.5625 C-6 2 -6 2 -3.375 0.625 C-1 0 -1 0 0 0 Z " fill="#6DC398" transform="translate(320,96)"/>
<path d="M0 0 C0.70703125 1.66015625 0.70703125 1.66015625 1 4 C-0.36328125 6.62109375 -0.36328125 6.62109375 -2.3125 9.4375 C-4.66322027 12.86583241 -6.76026643 16.00682503 -8 20 C-7.67 20.66 -7.34 21.32 -7 22 C-6.67 21.34 -6.34 20.68 -6 20 C-5.01 20 -4.02 20 -3 20 C-2.67 18.68 -2.34 17.36 -2 16 C-1.34 16 -0.68 16 0 16 C0 15.01 0 14.02 0 13 C0.66 13 1.32 13 2 13 C0.58456614 16.8091823 -1.17902607 20.19389759 -3.25 23.6875 C-3.86488281 24.72777344 -4.47976563 25.76804688 -5.11328125 26.83984375 C-5.73589844 27.88269531 -6.35851562 28.92554688 -7 30 C-7.59167969 30.99128906 -8.18335938 31.98257813 -8.79296875 33.00390625 C-10.19108233 35.33852346 -11.59311911 37.67065875 -13 40 C-14.60031344 36.79937313 -13.03173691 34.27728194 -12 31 C-11.34 31 -10.68 31 -10 31 C-10 29.68 -10 28.36 -10 27 C-10.6496875 27.6496875 -10.6496875 27.6496875 -11.3125 28.3125 C-11.869375 28.869375 -12.42625 29.42625 -13 30 C-13.515625 30.556875 -14.03125 31.11375 -14.5625 31.6875 C-16 33 -16 33 -18 33 C-16.76911497 28.52405445 -14.91540166 25.04951726 -12.421875 21.19921875 C-7.97209558 14.31673024 -3.92563354 7.19120481 0 0 Z " fill="#7CCAA1" transform="translate(285,148)"/>
<path d="M0 0 C0.66 0 1.32 0 2 0 C2 1.32 2 2.64 2 4 C1.34 4 0.68 4 0 4 C-0.0825 4.94875 -0.165 5.8975 -0.25 6.875 C-1.04015112 12.55711617 -3.44829239 17.89658477 -6 23 C-7.32 23 -8.64 23 -10 23 C-10 23.99 -10 24.98 -10 26 C-10.66 26 -11.32 26 -12 26 C-12.33 26.66 -12.66 27.32 -13 28 C-14.31171975 24.06484075 -13.40459846 22.08242804 -12.25 18.125 C-11.90453125 16.91070312 -11.5590625 15.69640625 -11.203125 14.4453125 C-10.09310073 11.26660663 -8.97926732 8.71704049 -7 6 C-6.154375 5.835 -5.30875 5.67 -4.4375 5.5 C-3.633125 5.335 -2.82875 5.17 -2 5 C-0.62533375 2.52363988 -0.62533375 2.52363988 0 0 Z " fill="#7DCAA4" transform="translate(273,175)"/>
<path d="M0 0 C6 7.71428571 6 7.71428571 6 11 C5.484375 11.45375 4.96875 11.9075 4.4375 12.375 C3.963125 12.91125 3.48875 13.4475 3 14 C3.19471111 15.94999129 3.19471111 15.94999129 4 18 C4.34060811 19.66519519 4.67558396 21.33157466 5 23 C5.99 22.67 6.98 22.34 8 22 C8.103125 22.763125 8.20625 23.52625 8.3125 24.3125 C8.75387827 26.99779178 8.75387827 26.99779178 10.421875 28.40625 C12.22894743 30.23121424 12.96162246 31.82110167 13.9375 34.1875 C15.27248599 37.35421095 16.70511804 40.40010237 18.3125 43.4375 C18.869375 44.613125 19.42625 45.78875 20 47 C19.67 47.66 19.34 48.32 19 49 C16.77491149 46.16806917 14.99897927 43.30466578 13.3125 40.125 C10.97455924 35.77816199 8.58071693 31.46871091 6.125 27.1875 C5.79346924 26.60935547 5.46193848 26.03121094 5.12036133 25.43554688 C4.43630866 24.24349535 3.7519786 23.05160297 3.06738281 21.85986328 C1.2066961 18.61770605 -0.64616619 15.37107879 -2.5 12.125 C-3.17704981 10.94008501 -3.85412993 9.75518734 -4.53125 8.5703125 C-5.0159375 7.72210938 -5.500625 6.87390625 -6 6 C-5.34 5.67 -4.68 5.34 -4 5 C-4 5.66 -4 6.32 -4 7 C-2.68 7 -1.36 7 0 7 C0 4.69 0 2.38 0 0 Z " fill="#82CDA8" transform="translate(408,177)"/>
<path d="M0 0 C2.0625 0.4375 2.0625 0.4375 4 1 C4.33 2.32 4.66 3.64 5 5 C4.01 5 3.02 5 2 5 C1.67 4.34 1.34 3.68 1 3 C0.34 3 -0.32 3 -1 3 C-1.8441938 6.97977076 -2.44687265 10.97007218 -3 15 C-2.01 15 -1.02 15 0 15 C-1.54545146 20.47932789 -4.15543212 25.11429181 -7 30 C-7.33 30 -7.66 30 -8 30 C-8 27.03 -8 24.06 -8 21 C-7.34 21 -6.68 21 -6 21 C-5.67 19.68 -5.34 18.36 -5 17 C-8.80433639 19.70308112 -10.46129521 21.62060944 -12 26 C-12.66 26.33 -13.32 26.66 -14 27 C-14.33 27.99 -14.66 28.98 -15 30 C-15.66 30 -16.32 30 -17 30 C-15.47838383 25.86213562 -13.46085328 22.11215926 -11.25 18.3125 C-10.89800537 17.70253174 -10.54601074 17.09256348 -10.18334961 16.46411133 C-1.55560755 1.55560755 -1.55560755 1.55560755 0 0 Z " fill="#8CD0AC" transform="translate(337,59)"/>
<path d="M0 0 C0.66 0.33 1.32 0.66 2 1 C1.29211272 4.68101385 -0.1602395 7.74503911 -2 11 C-2.99 11.66 -3.98 12.32 -5 13 C-4.01 14.485 -4.01 14.485 -3 16 C-2.34 14.68 -1.68 13.36 -1 12 C-0.34 12 0.32 12 1 12 C1 11.34 1 10.68 1 10 C1.99 9.67 2.98 9.34 4 9 C2.57250019 12.79049707 0.83763458 16.27122456 -1.125 19.8125 C-1.66382813 20.78832031 -2.20265625 21.76414062 -2.7578125 22.76953125 C-3.16773438 23.50558594 -3.57765625 24.24164063 -4 25 C-4.28875 24.360625 -4.5775 23.72125 -4.875 23.0625 C-5.82823451 20.84793921 -5.82823451 20.84793921 -8 20 C-8.2475 20.639375 -8.495 21.27875 -8.75 21.9375 C-10 24 -10 24 -12.078125 24.62890625 C-12.71234375 24.75136719 -13.3465625 24.87382812 -14 25 C-5.61702128 7.65957447 -5.61702128 7.65957447 0 0 Z " fill="#7DCAA5" transform="translate(223,255)"/>
<path d="M0 0 C0.33 0.99 0.66 1.98 1 3 C2.32 3 3.64 3 5 3 C7.60018816 6.90028225 7.15085514 10.47434569 7 15 C4.625 15.125 4.625 15.125 2 15 C1.34 14.34 0.68 13.68 0 13 C-2.05396726 13.40929986 -2.05396726 13.40929986 -4 14 C-4.33 13.67 -4.66 13.34 -5 13 C-4.58667797 8.7014509 -3.9401116 4.8802232 -2 1 C-1.34 0.67 -0.68 0.34 0 0 Z " fill="#63BF92" transform="translate(338,61)"/>
<path d="M0 0 C0.33 1.32 0.66 2.64 1 4 C33.67 4 66.34 4 100 4 C100 4.33 100 4.66 100 5 C66.01 5 32.02 5 -3 5 C-2.67 4.01 -2.34 3.02 -2 2 C-1.34 2 -0.68 2 0 2 C0 1.34 0 0.68 0 0 Z " fill="#6EBF9A" transform="translate(217,280)"/>
<path d="M0 0 C0.45375 0.66 0.9075 1.32 1.375 2 C1.91125 2.66 2.4475 3.32 3 4 C3.66 4 4.32 4 5 4 C5.83848804 5.45537568 6.67063934 6.91440373 7.5 8.375 C7.9640625 9.18710937 8.428125 9.99921875 8.90625 10.8359375 C10 13 10 13 10 15 C7.47524538 16.26237731 5.68799534 16.09856404 2.875 16.0625 C1.96492188 16.05347656 1.05484375 16.04445313 0.1171875 16.03515625 C-0.93082031 16.01775391 -0.93082031 16.01775391 -2 16 C-1.67 14.68 -1.34 13.36 -1 12 C-0.34 12 0.32 12 1 12 C0.505 10.8553125 0.505 10.8553125 0 9.6875 C-1 7 -1 7 -1 4 C-1.66 4 -2.32 4 -3 4 C-2.67 3.01 -2.34 2.02 -2 1 C-1.34 0.67 -0.68 0.34 0 0 Z " fill="#5FC293" transform="translate(462,273)"/>
<path d="M0 0 C1.58971965 2.38457948 2.86741593 4.6304124 4.125 7.1875 C4.47820312 7.90292969 4.83140625 8.61835938 5.1953125 9.35546875 C5.46085937 9.89816406 5.72640625 10.44085938 6 11 C5.01 11.495 5.01 11.495 4 12 C3.34 10.68 2.68 9.36 2 8 C1.34 8 0.68 8 0 8 C0 5.36 0 2.72 0 0 Z M-8 2 C-7.01 2 -6.02 2 -5 2 C-2 5.33333333 -2 5.33333333 -2 8 C-1.34 8.33 -0.68 8.66 0 9 C-0.33 9.66 -0.66 10.32 -1 11 C-0.34 11 0.32 11 1 11 C1.66 13.64 2.32 16.28 3 19 C0.62492145 19.02719556 -1.74983964 19.04693247 -4.125 19.0625 C-5.12273437 19.07506836 -5.12273437 19.07506836 -6.140625 19.08789062 C-10.20681354 19.10782292 -14.0120092 18.78890161 -18 18 C-18 17.67 -18 17.34 -18 17 C-12.06 17 -6.12 17 0 17 C-2.63046459 12.4362659 -2.63046459 12.4362659 -5.265625 7.87524414 C-8 3.11111111 -8 3.11111111 -8 2 Z " fill="#8CCFAF" transform="translate(460,266)"/>
<path d="M0 0 C1 2 1 2 0.3125 5 C-1 8 -1 8 -3.0625 8.9375 C-3.701875 9.288125 -4.34125 9.63875 -5 10 C-5.81870185 13.56206661 -5.81870185 13.56206661 -6 17 C-6.99 17.33 -7.98 17.66 -9 18 C-9 18.66 -9 19.32 -9 20 C-9.66 20.33 -10.32 20.66 -11 21 C-12.13350534 23.01669827 -12.13350534 23.01669827 -13 25 C-13.66 24.67 -14.32 24.34 -15 24 C-14.67 23.34 -14.34 22.68 -14 22 C-14.66 21.67 -15.32 21.34 -16 21 C-15.38125 20.79375 -14.7625 20.5875 -14.125 20.375 C-10.47346556 18.01224242 -10.25606911 14.17791792 -9.375 10.125 C-9.25125 9.42375 -9.1275 8.7225 -9 8 C-8.34 8 -7.68 8 -7 8 C-6.773125 7.05125 -6.54625 6.1025 -6.3125 5.125 C-5 2 -5 2 -2.375 0.625 C-1.59125 0.41875 -0.8075 0.2125 0 0 Z " fill="#61C192" transform="translate(233,247)"/>
<path d="M0 0 C4.04998757 3.88371242 7.65147576 8.01204219 8.3203125 13.74609375 C8.31339676 16.18389174 8.22378959 18.57312625 8 21 C7.34 21 6.68 21 6 21 C3 17.53846154 3 17.53846154 3 15 C2.01 15 1.02 15 0 15 C-1.88178944 9.0410001 -2.19671115 5.85789639 0 0 Z " fill="#80CDA7" transform="translate(452,253)"/>
<path d="M0 0 C1.859375 0.13671875 1.859375 0.13671875 4 1 C5.703125 3.14453125 5.703125 3.14453125 7.25 5.8125 C7.77078125 6.68519531 8.2915625 7.55789062 8.828125 8.45703125 C10 11 10 11 10 15 C8.02 15.33 6.04 15.66 4 16 C3.67 14.68 3.34 13.36 3 12 C2.34 12 1.68 12 1 12 C0.87625 11.195625 0.7525 10.39125 0.625 9.5625 C0.315625 8.2940625 0.315625 8.2940625 0 7 C-0.66 6.67 -1.32 6.34 -2 6 C-1.125 1.125 -1.125 1.125 0 0 Z " fill="#62C094" transform="translate(412,188)"/>
<path d="M0 0 C1.68933922 1.6436814 3.35259924 3.3142876 5 5 C5.5775 5.5775 6.155 6.155 6.75 6.75 C8.70839295 10.27510732 8.75367788 14.02487068 9 18 C8.34 18.33 7.68 18.66 7 19 C6.01 18.67 5.02 18.34 4 18 C4 17.34 4 16.68 4 16 C3.34 16 2.68 16 2 16 C2.33 13.69 2.66 11.38 3 9 C1.68 8.67 0.36 8.34 -1 8 C-1.625 5.125 -1.625 5.125 -2 2 C-1.34 1.34 -0.68 0.68 0 0 Z " fill="#62C195" transform="translate(400,166)"/>
<path d="M0 0 C0.66 0 1.32 0 2 0 C2 1.32 2 2.64 2 4 C2.99 4.33 3.98 4.66 5 5 C5.33 5.66 5.66 6.32 6 7 C6.66 7 7.32 7 8 7 C10.44038726 11.88077452 11.46845421 14.52667068 10 20 C7 19 7 19 5.9375 17 C5.628125 16.34 5.31875 15.68 5 15 C4.34 14.67 3.68 14.34 3 14 C2.1484375 11.85546875 2.1484375 11.85546875 1.375 9.1875 C1.11460937 8.31480469 0.85421875 7.44210938 0.5859375 6.54296875 C0 4 0 4 0 0 Z " fill="#5BC091" transform="translate(377,129)"/>
<path d="M0 0 C0.66 0 1.32 0 2 0 C2 0.99 2 1.98 2 3 C2.66 3 3.32 3 4 3 C4.309375 4.2065625 4.309375 4.2065625 4.625 5.4375 C5.07875 6.283125 5.5325 7.12875 6 8 C9.05272465 8.89830839 9.05272465 8.89830839 12 9 C12.33 8.34 12.66 7.68 13 7 C14.98 9.97 16.96 12.94 19 16 C18.67 16.66 18.34 17.32 18 18 C16.02 16.35 14.04 14.7 12 13 C12.74359673 18.55053286 12.74359673 18.55053286 14 24 C10.8086265 21.26738644 9.00358425 17.74802264 7 14.125 C4.19934398 9.10911975 4.19934398 9.10911975 1.25 4.1796875 C0 2 0 2 0 0 Z " fill="#95D5B3" transform="translate(345,83)"/>
<path d="M0 0 C1.07310858 3.27185553 0.89263102 5.42947592 0.0625 8.75 C-0.13214844 9.54921875 -0.32679688 10.3484375 -0.52734375 11.171875 C-0.68332031 11.77515625 -0.83929688 12.3784375 -1 13 C-0.01 12.67 0.98 12.34 2 12 C2 11.01 2 10.02 2 9 C2.99 9.33 3.98 9.66 5 10 C2.03706364 15.35514317 -0.95137669 20.6931372 -4 26 C-4.33 26 -4.66 26 -5 26 C-5 24.02 -5 22.04 -5 20 C-4.01 20 -3.02 20 -2 20 C-2 18.02 -2 16.04 -2 14 C-5.12197478 15.3089572 -5.12197478 15.3089572 -7 18 C-7.66 18 -8.32 18 -9 18 C-7.65072455 13.46152802 -5.80840652 9.68067754 -3.375 5.625 C-2.74335938 4.56539062 -2.11171875 3.50578125 -1.4609375 2.4140625 C-0.73777344 1.21910156 -0.73777344 1.21910156 0 0 Z " fill="#8ED2AD" transform="translate(261,189)"/>
<path d="M0 0 C0.33 0 0.66 0 1 0 C1.33 1.65 1.66 3.3 2 5 C2.99 4.34 3.98 3.68 5 3 C5.99 3 6.98 3 8 3 C6.54955729 7.10958767 4.48889248 10.43258745 2 14 C1.731875 13.38125 1.46375 12.7625 1.1875 12.125 C0.04443152 9.7004767 0.04443152 9.7004767 -3 8 C-3 9.98 -3 11.96 -3 14 C-4.32 14.33 -5.64 14.66 -7 15 C-7 15.99 -7 16.98 -7 18 C-7.66 18 -8.32 18 -9 18 C-7.6510689 13.48548686 -5.83381706 9.67722719 -3.4375 5.625 C-2.81746094 4.56539063 -2.19742187 3.50578125 -1.55859375 2.4140625 C-0.78708984 1.21910156 -0.78708984 1.21910156 0 0 Z " fill="#8CD2AD" transform="translate(304,115)"/>
<path d="M0 0 C2.33364352 2.92903058 4.04960836 5.88568203 5.6875 9.25 C6.34298828 10.58804688 6.34298828 10.58804688 7.01171875 11.953125 C7.33785156 12.62859375 7.66398437 13.3040625 8 14 C7.01 14.495 7.01 14.495 6 15 C5.67 14.01 5.34 13.02 5 12 C4.34 11.67 3.68 11.34 3 11 C3 9.68 3 8.36 3 7 C2.34 7 1.68 7 1 7 C2.32 11.62 3.64 16.24 5 21 C4.34 21.33 3.68 21.66 3 22 C2.01515892 20.25318707 1.03733813 18.5024149 0.0625 16.75 C-0.48277344 15.77546875 -1.02804687 14.8009375 -1.58984375 13.796875 C-2.76610835 11.46389591 -3.52101691 9.54649238 -4 7 C-3.01 6.67 -2.02 6.34 -1 6 C-0.67 4.02 -0.34 2.04 0 0 Z " fill="#8ACEAB" transform="translate(376,122)"/>
<path d="M0 0 C2.3125 0.125 2.3125 0.125 5 1 C7.99283581 5.33445186 8.31100973 8.81650457 8 14 C6.68 14 5.36 14 4 14 C4 13.01 4 12.02 4 11 C3.01 10.67 2.02 10.34 1 10 C0 3.375 0 3.375 0 0 Z " fill="#6AC397" transform="translate(433,226)"/>
<path d="M0 0 C0.99 0.33 1.98 0.66 3 1 C3.33 2.65 3.66 4.3 4 6 C4.99 5.67 5.98 5.34 7 5 C7.103125 5.763125 7.20625 6.52625 7.3125 7.3125 C7.75387827 9.99779178 7.75387827 9.99779178 9.421875 11.40625 C11.22894743 13.23121424 11.96162246 14.82110167 12.9375 17.1875 C14.27248599 20.35421095 15.70511804 23.40010237 17.3125 26.4375 C17.869375 27.613125 18.42625 28.78875 19 30 C18.67 30.66 18.34 31.32 18 32 C15.77491149 29.16806917 13.99897927 26.30466578 12.3125 23.125 C9.51885398 17.91674537 6.60590979 12.78857618 3.62817383 7.68408203 C2.15528193 5.13580858 0.93419308 2.80257924 0 0 Z " fill="#A0D9B7" transform="translate(409,194)"/>
<path d="M0 0 C6.67982063 4.49865471 6.67982063 4.49865471 7.46484375 8.1796875 C7.4375 10.375 7.4375 10.375 7 14 C6.01 14.33 5.02 14.66 4 15 C4 14.34 4 13.68 4 13 C3.34 13 2.68 13 2 13 C1.46605821 11.5882217 0.94834896 10.17029756 0.4375 8.75 C0.14746094 7.96109375 -0.14257812 7.1721875 -0.44140625 6.359375 C-1.04522837 3.80896548 -0.8473932 2.44677771 0 0 Z " fill="#66C094" transform="translate(357,95)"/>
<path d="M0 0 C-0.33 2.31 -0.66 4.62 -1 7 C-1.33 7 -1.66 7 -2 7 C-2.12375 7.94875 -2.2475 8.8975 -2.375 9.875 C-3 13 -3 13 -5 15 C-5.99 15 -6.98 15 -8 15 C-8.82707306 12.63011757 -9.12634 11.38269269 -8.328125 8.96484375 C-7.79445313 7.96130859 -7.79445313 7.96130859 -7.25 6.9375 C-6.90453125 6.26589844 -6.5590625 5.59429687 -6.203125 4.90234375 C-3.1026694 0 -3.1026694 0 0 0 Z " fill="#5BC190" transform="translate(332,76)"/>
<path d="M0 0 C1.32 1.65 2.64 3.3 4 5 C3.67 5.66 3.34 6.32 3 7 C2.01 6.34 1.02 5.68 0 5 C0 5.66 0 6.32 0 7 C-0.66 7 -1.32 7 -2 7 C-1.67 8.32 -1.34 9.64 -1 11 C0.32 11 1.64 11 3 11 C3.33 11.99 3.66 12.98 4 14 C3.34 14 2.68 14 2 14 C2.350625 14.598125 2.70125 15.19625 3.0625 15.8125 C4 18 4 18 3 21 C2.56300781 20.19949219 2.56300781 20.19949219 2.1171875 19.3828125 C-1.11784464 13.50278553 -4.51564819 7.73541071 -8 2 C-7.34 1.67 -6.68 1.34 -6 1 C-4.35 2.65 -2.7 4.3 -1 6 C-0.67 4.02 -0.34 2.04 0 0 Z " fill="#99D3B4" transform="translate(388,143)"/>
<path d="M0 0 C2.83328987 2.83328987 3.7191375 4.35446828 5 8 C4.01 8.33 3.02 8.66 2 9 C2.33 10.98 2.66 12.96 3 15 C3.99 15.33 4.98 15.66 6 16 C6 17.65 6 19.3 6 21 C5.34 21.33 4.68 21.66 4 22 C2.99466333 20.37829621 1.99588093 18.75252763 1 17.125 C0.443125 16.22007812 -0.11375 15.31515625 -0.6875 14.3828125 C-2 12 -2 12 -2 10 C-1.34 10 -0.68 10 0 10 C0 6.7 0 3.4 0 0 Z " fill="#8ED1AD" transform="translate(397,159)"/>
<path d="M0 0 C0 2.31 0 4.62 0 7 C-0.99 7.33 -1.98 7.66 -3 8 C-3 9.32 -3 10.64 -3 12 C-4.32 12.33 -5.64 12.66 -7 13 C-6.91253716 11.56138706 -6.80434652 10.12402492 -6.6875 8.6875 C-6.62949219 7.88699219 -6.57148438 7.08648437 -6.51171875 6.26171875 C-5.90935468 3.59936152 -5.10358809 2.68806452 -3 1 C-1 0 -1 0 0 0 Z " fill="#63C190" transform="translate(320,96)"/>
<path d="M0 0 C1.0625 1.8125 1.0625 1.8125 2 4 C1.67 4.99 1.34 5.98 1 7 C0.34 7 -0.32 7 -1 7 C-1.33 8.32 -1.66 9.64 -2 11 C-2.99 11 -3.98 11 -5 11 C-5.66 12.32 -6.32 13.64 -7 15 C-7.76534775 12.2447481 -8.19022104 10.55481136 -7.25 7.8125 C-6 6 -6 6 -3 4 C-1.96352976 2.69481525 -0.95577057 1.36538653 0 0 Z " fill="#5DC091" transform="translate(284,157)"/>
<path d="M0 0 C1.32 0.33 2.64 0.66 4 1 C0.535 7.435 0.535 7.435 -3 14 C-3.66 14 -4.32 14 -5 14 C-5.103125 14.763125 -5.20625 15.52625 -5.3125 16.3125 C-6.04364039 19.17059424 -6.76951913 20.15742885 -9 22 C-9 19.36 -9 16.72 -9 14 C-7.35 13.67 -5.7 13.34 -4 13 C-3.34 10.36 -2.68 7.72 -2 5 C-1.34 5 -0.68 5 0 5 C0 3.35 0 1.7 0 0 Z " fill="#90D1AC" transform="translate(236,242)"/>
<path d="M0 0 C2.125 0.375 2.125 0.375 4 1 C4.33 2.32 4.66 3.64 5 5 C4.01 5 3.02 5 2 5 C1.67 4.34 1.34 3.68 1 3 C0.34 3 -0.32 3 -1 3 C-1.103125 3.680625 -1.20625 4.36125 -1.3125 5.0625 C-2.1537532 8.65694548 -3.29769664 11.72148982 -5 15 C-7.10546875 15.703125 -7.10546875 15.703125 -9 16 C-7.87987208 13.70583427 -6.75417159 11.41470906 -5.625 9.125 C-5.30789063 8.47402344 -4.99078125 7.82304688 -4.6640625 7.15234375 C-3.31109879 4.41822959 -2.17227482 2.17227482 0 0 Z " fill="#A1D5B6" transform="translate(337,59)"/>
<path d="M0 0 C0.98120464 3.05263664 0.98120464 4.94736336 0 8 C-0.99 8 -1.98 8 -3 8 C-3 8.99 -3 9.98 -3 11 C-3.66 11 -4.32 11 -5 11 C-5.33 11.66 -5.66 12.32 -6 13 C-7.3340394 8.99788181 -6.40012984 6.92036356 -5 3 C-2.67741935 0 -2.67741935 0 0 0 Z " fill="#5EC292" transform="translate(266,190)"/>
<path d="M0 0 C0.66 0 1.32 0 2 0 C2 1.32 2 2.64 2 4 C1.34 4 0.68 4 0 4 C-0.144375 5.11375 -0.28875 6.2275 -0.4375 7.375 C-1 11 -1 11 -2 13 C-2.99 13 -3.98 13 -5 13 C-5.33 10.69 -5.66 8.38 -6 6 C-5.38125 5.938125 -4.7625 5.87625 -4.125 5.8125 C-1.72238859 5.171081 -1.72238859 5.171081 -0.75 2.4375 C-0.5025 1.633125 -0.255 0.82875 0 0 Z " fill="#60C294" transform="translate(273,175)"/>
<path d="M0 0 C1.9375 0.3125 1.9375 0.3125 4 1 C5 4 5 4 4 7 C3.01 7.33 2.02 7.66 1 8 C0.26676204 10.01508358 0.26676204 10.01508358 0 12 C-0.99 12 -1.98 12 -3 12 C-3 10.35 -3 8.7 -3 7 C-2.01 6.67 -1.02 6.34 0 6 C0 4.02 0 2.04 0 0 Z " fill="#60C090" transform="translate(301,123)"/>
<path d="M0 0 C0.66 0.33 1.32 0.66 2 1 C1.67 1.66 1.34 2.32 1 3 C0.34 3 -0.32 3 -1 3 C-1.20625 3.78375 -1.4125 4.5675 -1.625 5.375 C-3.49034873 10.29273755 -6.20865195 14.55842103 -9 19 C-10 17 -10 17 -10 13 C-9.01 13 -8.02 13 -7 13 C-7 11.68 -7 10.36 -7 9 C-6.34 8.67 -5.68 8.34 -5 8 C-4.690625 7.030625 -4.38125 6.06125 -4.0625 5.0625 C-3 2 -3 2 0 0 Z " fill="#94D5B3" transform="translate(324,95)"/>
<path d="M0 0 C0.99 0 1.98 0 3 0 C4.125 3.75 4.125 3.75 3 6 C2.01 6 1.02 6 0 6 C-0.33 7.65 -0.66 9.3 -1 11 C-1.33 10.01 -1.66 9.02 -2 8 C-2.66 8 -3.32 8 -4 8 C-4 6.68 -4 5.36 -4 4 C-3.34 4 -2.68 4 -2 4 C-1.34 2.68 -0.68 1.36 0 0 Z " fill="#5FC090" transform="translate(256,203)"/>
<path d="M0 0 C0.33 0.99 0.66 1.98 1 3 C1.66 3 2.32 3 3 3 C4.85776765 6.13498292 5.20140476 8.37471432 5 12 C2.525 11.01 2.525 11.01 0 10 C-1.125 3.375 -1.125 3.375 0 0 Z " fill="#5FBF90" transform="translate(442,239)"/>
<path d="M0 0 C3.465 1.485 3.465 1.485 7 3 C7 5.64 7 8.28 7 11 C6.34 11 5.68 11 5 11 C3.7109375 9.609375 3.7109375 9.609375 2.375 7.75 C1.92898438 7.14671875 1.48296875 6.5434375 1.0234375 5.921875 C0 4 0 4 0 0 Z " fill="#5BC092" transform="translate(453,263)"/>
<path d="M0 0 C1.31625194 2.63250388 0.74813658 3.80179056 0.0625 6.625 C-0.13214844 7.44226563 -0.32679688 8.25953125 -0.52734375 9.1015625 C-0.68332031 9.72804688 -0.83929688 10.35453125 -1 11 C-1.99 11 -2.98 11 -4 11 C-4.4021875 12.2065625 -4.4021875 12.2065625 -4.8125 13.4375 C-5.4003125 14.7059375 -5.4003125 14.7059375 -6 16 C-6.99 16.33 -7.98 16.66 -9 17 C-6.84901218 10.93812525 -3.55762971 5.33644457 0 0 Z " fill="#97D8B7" transform="translate(314,98)"/>
<path d="M0 0 C0.33 1.32 0.66 2.64 1 4 C9.25 4 17.5 4 26 4 C26 4.33 26 4.66 26 5 C16.43 5 6.86 5 -3 5 C-2.67 4.01 -2.34 3.02 -2 2 C-1.34 2 -0.68 2 0 2 C0 1.34 0 0.68 0 0 Z " fill="#77C8A2" transform="translate(217,280)"/>
<path d="M0 0 C0.66 0.33 1.32 0.66 2 1 C1.28849593 4.69982119 -0.0419216 7.78315692 -2 11 C-4.6875 12.375 -4.6875 12.375 -7 13 C-5.35821735 8.22390502 -2.73453298 4.20617096 0 0 Z " fill="#8FD3AE" transform="translate(223,255)"/>
<path d="M0 0 C0.66 0 1.32 0 2 0 C5 6.5 5 6.5 5 11 C4.34 11 3.68 11 3 11 C3 10.34 3 9.68 3 9 C2.01 8.67 1.02 8.34 0 8 C-0.79953138 4.71303767 -1.09658936 3.28976808 0 0 Z " fill="#75C59D" transform="translate(383,136)"/>
<path d="M0 0 C0.99 0.33 1.98 0.66 3 1 C4.125 6.75 4.125 6.75 3 9 C2.34 8.67 1.68 8.34 1 8 C1.33 7.34 1.66 6.68 2 6 C1.34 6 0.68 6 0 6 C-0.33 6.66 -0.66 7.32 -1 8 C-1.99 8 -2.98 8 -4 8 C-4.33 9.65 -4.66 11.3 -5 13 C-6 11 -6 11 -5.8125 9 C-5 7 -5 7 -3 6.0625 C-2.34 5.711875 -1.68 5.36125 -1 5 C-0.18828772 2.44480079 -0.18828772 2.44480079 0 0 Z " fill="#64C195" transform="translate(214,273)"/>
<path d="M0 0 C0.66 0.33 1.32 0.66 2 1 C2 3.31 2 5.62 2 8 C2.99 8.33 3.98 8.66 5 9 C5.33 9.99 5.66 10.98 6 12 C5.34 12 4.68 12 4 12 C3.67 12.66 3.34 13.32 3 14 C2.67 13.01 2.34 12.02 2 11 C2.33 10.34 2.66 9.68 3 9 C1.68 8.67 0.36 8.34 -1 8 C-1.625 5.125 -1.625 5.125 -2 2 C-1.34 1.34 -0.68 0.68 0 0 Z " fill="#5ABD8F" transform="translate(400,166)"/>
<path d="M0 0 C2.375 0.6875 2.375 0.6875 5 2 C6.3125 4.625 6.3125 4.625 7 7 C1.5 7.36666667 1.5 7.36666667 -0.875 5.625 C-2 4 -2 4 -2 2 C-1.34 2 -0.68 2 0 2 C0 1.34 0 0.68 0 0 Z " fill="#6FC69D" transform="translate(388,148)"/>
<path d="M0 0 C0.66 0 1.32 0 2 0 C2 1.32 2 2.64 2 4 C2.66 4 3.32 4 4 4 C5.125 8.75 5.125 8.75 4 11 C1 10 1 10 -0.25 7.75 C-1.07700926 4.71763271 -0.85394079 2.98879276 0 0 Z " fill="#5CC092" transform="translate(349,81)"/>
<path d="M0 0 C0.70703125 1.65625 0.70703125 1.65625 1 4 C-0.36328125 6.65625 -0.36328125 6.65625 -2.3125 9.5 C-4.41565566 12.60567408 -6.41771006 15.59446227 -8 19 C-8.66 19 -9.32 19 -10 19 C-8.71938615 14.41113371 -6.96967015 11.66841607 -4 8 C-2.56116995 5.38172082 -1.26282062 2.70700377 0 0 Z " fill="#AADDC1" transform="translate(285,148)"/>
<path d="M0 0 C0.33 0.99 0.66 1.98 1 3 C2.32 3 3.64 3 5 3 C5 3.66 5 4.32 5 5 C4.34 5 3.68 5 3 5 C2.01 6.485 2.01 6.485 1 8 C-1.625 8.1875 -1.625 8.1875 -4 8 C-3.40138258 5.64828869 -2.73075648 3.3140622 -2 1 C-1.34 0.67 -0.68 0.34 0 0 Z " fill="#68C297" transform="translate(338,61)"/>
<path d="M0 0 C0.66 0 1.32 0 2 0 C0.35821735 4.77609498 -2.26546702 8.79382904 -5 13 C-6.0625 11.125 -6.0625 11.125 -7 9 C-6.67 8.34 -6.34 7.68 -6 7 C-5.01 7 -4.02 7 -3 7 C-2.67 5.68 -2.34 4.36 -2 3 C-1.34 3 -0.68 3 0 3 C0 2.01 0 1.02 0 0 Z " fill="#94D8B5" transform="translate(285,161)"/>
<path d="M0 0 C0.33 0.99 0.66 1.98 1 3 C-0.26067275 5.43129745 -1.55340759 7.68848696 -3 10 C-3.53625 10.969375 -4.0725 11.93875 -4.625 12.9375 C-5.07875 13.618125 -5.5325 14.29875 -6 15 C-6.66 15 -7.32 15 -8 15 C-6.62712658 11.30123909 -4.93644547 8.0485524 -2.875 4.6875 C-2.33617187 3.80449219 -1.79734375 2.92148438 -1.2421875 2.01171875 C-0.83226562 1.34785156 -0.42234375 0.68398437 0 0 Z " fill="#99D8B6" transform="translate(294,133)"/>
<path d="M0 0 C0.66 0 1.32 0 2 0 C2.33 0.99 2.66 1.98 3 3 C2.319375 3.61875 2.319375 3.61875 1.625 4.25 C-0.05950374 6.06408095 -0.99265971 7.75285627 -2 10 C-2.66 9.67 -3.32 9.34 -4 9 C-3.67 8.34 -3.34 7.68 -3 7 C-3.66 6.67 -4.32 6.34 -5 6 C-4.360625 5.7525 -3.72125 5.505 -3.0625 5.25 C-0.81258459 4.18437567 -0.81258459 4.18437567 -0.25 1.875 C-0.1675 1.25625 -0.085 0.6375 0 0 Z " fill="#58BF8C" transform="translate(222,262)"/>
<path d="M0 0 C1.65 0.33 3.3 0.66 5 1 C5 2.98 5 4.96 5 7 C4.01 7 3.02 7 2 7 C0.25 5.1875 0.25 5.1875 -1 3 C-0.67 2.01 -0.34 1.02 0 0 Z " fill="#63BE91" transform="translate(447,252)"/>
<path d="M0 0 C1.98 0.495 1.98 0.495 4 1 C4 1.99 4 2.98 4 4 C3.34 4 2.68 4 2 4 C1.87625 4.804375 1.7525 5.60875 1.625 6.4375 C1.41875 7.283125 1.2125 8.12875 1 9 C0.01 9.495 0.01 9.495 -1 10 C-0.67 6.7 -0.34 3.4 0 0 Z " fill="#5CBF8F" transform="translate(245,221)"/>
<path d="M0 0 C2.30874711 2.16614803 4.05290181 4.39206608 5.75 7.0625 C6.19859375 7.75472656 6.6471875 8.44695312 7.109375 9.16015625 C7.40328125 9.76730469 7.6971875 10.37445313 8 11 C7.67 11.66 7.34 12.32 7 13 C2.18602057 8.94612259 1.11458074 5.9782058 0 0 Z " fill="#8FD0AD" transform="translate(414,188)"/>
<path d="M0 0 C1.32 0.33 2.64 0.66 4 1 C2.02 4.96 0.04 8.92 -2 13 C-3.09658936 9.71023192 -2.79953138 8.28696233 -2 5 C-1.34 5 -0.68 5 0 5 C0 3.35 0 1.7 0 0 Z " fill="#9DD7B5" transform="translate(297,137)"/>
<path d="M0 0 C2.0625 0.4375 2.0625 0.4375 4 1 C4 3.31 4 5.62 4 8 C3.01 8.33 2.02 8.66 1 9 C0.63877119 7.68942607 0.28619689 6.37646376 -0.0625 5.0625 C-0.35833984 3.96615234 -0.35833984 3.96615234 -0.66015625 2.84765625 C-0.77230469 2.23792969 -0.88445312 1.62820312 -1 1 C-0.67 0.67 -0.34 0.34 0 0 Z " fill="#61BF92" transform="translate(372,120)"/>
<path d="M0 0 C0 1.32 0 2.64 0 4 C-0.99 4 -1.98 4 -3 4 C-3.33 4.99 -3.66 5.98 -4 7 C-4.99 7 -5.98 7 -7 7 C-6.6875 4.625 -6.6875 4.625 -6 2 C-3 0 -3 0 0 0 Z " fill="#5BBD8C" transform="translate(312,114)"/>
<path d="M0 0 C0.99 0.66 1.98 1.32 3 2 C0.03 6.95 0.03 6.95 -3 12 C-4.60031344 8.79937313 -3.03173691 6.27728194 -2 3 C-1.34 3 -0.68 3 0 3 C0 2.01 0 1.02 0 0 Z " fill="#99D6B5" transform="translate(275,176)"/>
<path d="M0 0 C1.53508028 2.43338652 2.03088304 3.67124507 1.7578125 6.578125 C1.54898437 7.45984375 1.34015625 8.3415625 1.125 9.25 C0.92132813 10.14203125 0.71765625 11.0340625 0.5078125 11.953125 C0.34023438 12.62859375 0.17265625 13.3040625 0 14 C-2.52588702 11.63707344 -3.88820837 10.33537489 -5 7 C-4.34 7 -3.68 7 -3 7 C-3 7.66 -3 8.32 -3 9 C-2.34 8.67 -1.68 8.34 -1 8 C-0.53476937 6.10466658 -0.53476937 6.10466658 -0.375 3.9375 C-0.25125 2.638125 -0.1275 1.33875 0 0 Z " fill="#8DD0AC" transform="translate(364,101)"/>
<path d="M0 0 C1.98 0.495 1.98 0.495 4 1 C4 2.65 4 4.3 4 6 C2.35 6 0.7 6 -1 6 C-0.67 4.02 -0.34 2.04 0 0 Z " fill="#5EBE8F" transform="translate(391,154)"/>
<path d="M0 0 C1.22853597 4.91414388 0.38965954 6.63269119 -2 11 C-3.32 11.33 -4.64 11.66 -6 12 C-4.02 8.04 -2.04 4.08 0 0 Z " fill="#93D3B0" transform="translate(215,268)"/>
<path d="M0 0 C3.08089673 2.77280706 4.68775452 5.06326356 6 9 C5.01 8.67 4.02 8.34 3 8 C2.01 8.495 2.01 8.495 1 9 C0.67 8.01 0.34 7.02 0 6 C0.66 6 1.32 6 2 6 C2 5.01 2 4.02 2 3 C1.34 3 0.68 3 0 3 C0 2.01 0 1.02 0 0 Z M-1 9 C1 10 1 10 1 10 Z " fill="#50524E" transform="translate(373,148)"/>
<path d="M0 0 C2.0625 0.4375 2.0625 0.4375 4 1 C3.49396008 3.16874252 3.00016187 4.99967627 2 7 C1.34 7 0.68 7 0 7 C-0.38133299 5.0085944 -0.71325582 3.00720923 -1 1 C-0.67 0.67 -0.34 0.34 0 0 Z " fill="#82C9A4" transform="translate(286,154)"/>
<path d="M0 0 C2.39763185 2.39763185 2.34280586 3.33273498 2.625 6.625 C2.69976562 7.44226563 2.77453125 8.25953125 2.8515625 9.1015625 C2.90054687 9.72804688 2.94953125 10.35453125 3 11 C1.68 10.34 0.36 9.68 -1 9 C-0.67 6.03 -0.34 3.06 0 0 Z " fill="#60BF90" transform="translate(365,106)"/>
<path d="M0 0 C1.65 0 3.3 0 5 0 C4.67 1.65 4.34 3.3 4 5 C3.01 5.33 2.02 5.66 1 6 C0 5 0 5 -0.0625 2.4375 C-0.041875 1.633125 -0.02125 0.82875 0 0 Z " fill="#55BF8E" transform="translate(333,69)"/>
<path d="M0 0 C0.99 0 1.98 0 3 0 C2.25 2.9375 2.25 2.9375 1 6 C-1.125 6.875 -1.125 6.875 -3 7 C-1.125 1.125 -1.125 1.125 0 0 Z " fill="#90D2AD" transform="translate(270,174)"/>
<path d="M0 0 C0.99 0.66 1.98 1.32 3 2 C2.67 3.32 2.34 4.64 2 6 C0.68 6 -0.64 6 -2 6 C-2 6.66 -2 7.32 -2 8 C-2.66 7.67 -3.32 7.34 -4 7 C-2.68 4.69 -1.36 2.38 0 0 Z " fill="#8BD7AE" transform="translate(266,181)"/>
<path d="M0 0 C0.99 0 1.98 0 3 0 C3.33 0.99 3.66 1.98 4 3 C4.515625 3.515625 5.03125 4.03125 5.5625 4.5625 C6.036875 5.036875 6.51125 5.51125 7 6 C7 6.66 7 7.32 7 8 C4 7 4 7 2.9375 5 C2.628125 4.34 2.31875 3.68 2 3 C1.34 2.67 0.68 2.34 0 2 C0 1.34 0 0.68 0 0 Z " fill="#6ABF95" transform="translate(380,141)"/>
<path d="M0 0 C0.33 0 0.66 0 1 0 C1.25 2.25 1.25 2.25 1 5 C-1 7.3125 -1 7.3125 -3 9 C-3.66 8.67 -4.32 8.34 -5 8 C-4.19185349 6.66402348 -3.37836819 5.331275 -2.5625 4 C-2.11003906 3.2575 -1.65757812 2.515 -1.19140625 1.75 C-0.79824219 1.1725 -0.40507812 0.595 0 0 Z " fill="#8FD2AF" transform="translate(320,89)"/>
<path d="M0 0 C1.32 0.66 2.64 1.32 4 2 C2.66666667 4 1.33333333 6 0 8 C-1.125 5.6875 -1.125 5.6875 -2 3 C-1.34 2.01 -0.68 1.02 0 0 Z " fill="#69C197" transform="translate(424,210)"/>
<path d="M0 0 C2.40072955 2.88087546 4.47291037 5.56404834 6 9 C0.25179856 6.55395683 0.25179856 6.55395683 -0.9375 3.9375 C-1 2 -1 2 0 0 Z " fill="#8BCFAB" transform="translate(402,168)"/>
<path d="M0 0 C2.15377564 2.62198774 3.40072174 4.64404172 4 8 C2.68 8.33 1.36 8.66 0 9 C0 6 0 3 0 0 Z " fill="#7DC4A3" transform="translate(468,280)"/>
<path d="M0 0 C2.74277578 3.19990508 4.6302836 6.00499382 6 10 C4.68 9.34 3.36 8.68 2 8 C2 7.01 2 6.02 2 5 C1.34 5 0.68 5 0 5 C0 3.35 0 1.7 0 0 Z " fill="#A5DABC" transform="translate(441,234)"/>
<path d="M0 0 C0.99 0.66 1.98 1.32 3 2 C1.68 4.31 0.36 6.62 -1 9 C-2.0326802 6.21176345 -2.04509293 5.1322726 -1.0625 2.25 C-0.711875 1.5075 -0.36125 0.765 0 0 Z " fill="#484944" transform="translate(324,209)"/>
<path d="M0 0 C1.32 0.33 2.64 0.66 4 1 C4 2.32 4 3.64 4 5 C2.68 5.33 1.36 5.66 0 6 C0 4.02 0 2.04 0 0 Z " fill="#57BF8D" transform="translate(313,103)"/>
<path d="M0 0 C1.32 0.33 2.64 0.66 4 1 C4.33 2.98 4.66 4.96 5 7 C4.01 6.67 3.02 6.34 2 6 C0.8125 2.9375 0.8125 2.9375 0 0 Z " fill="#68BD92" transform="translate(426,220)"/>
<path d="M0 0 C2.475 0.495 2.475 0.495 5 1 C5 2.65 5 4.3 5 6 C4.01 6.495 4.01 6.495 3 7 C0 2.25 0 2.25 0 0 Z " fill="#7CCEA7" transform="translate(398,174)"/>
<path d="M0 0 C1.32 0 2.64 0 4 0 C4 2.97 4 5.94 4 9 C1.49701566 6.06171403 0.53069061 3.82097239 0 0 Z " fill="#7BC79F" transform="translate(391,160)"/>
<path d="M0 0 C1.98 0.99 1.98 0.99 4 2 C4 3.98 4 5.96 4 8 C0 3.375 0 3.375 0 0 Z " fill="#99D3B4" transform="translate(364,115)"/>
<path d="M0 0 C0.33 0.66 0.66 1.32 1 2 C-0.65 3.65 -2.3 5.3 -4 7 C-4.33 6.01 -4.66 5.02 -5 4 C-4.01 3.67 -3.02 3.34 -2 3 C-2 2.34 -2 1.68 -2 1 C-1.34 0.67 -0.68 0.34 0 0 Z " fill="#84CCA2" transform="translate(226,264)"/>
<path d="M0 0 C0 2.83967231 -0.40267181 5.23735711 -1 8 C-2.32 8.33 -3.64 8.66 -5 9 C-3.7508258 5.54074837 -2.32472205 2.85306797 0 0 Z " fill="#96D5AF" transform="translate(237,232)"/>
<path d="M0 0 C0.66 0.33 1.32 0.66 2 1 C1.67 2.32 1.34 3.64 1 5 C-0.32 4.67 -1.64 4.34 -3 4 C-2.67 3.01 -2.34 2.02 -2 1 C-1.34 0.67 -0.68 0.34 0 0 Z " fill="#56BD8B" transform="translate(293,141)"/>
<path d="M0 0 C0.33 0.66 0.66 1.32 1 2 C1.66 2.33 2.32 2.66 3 3 C1.04783565 4.95216435 -0.53199953 5.84826645 -3 7 C-1.125 1.125 -1.125 1.125 0 0 Z " fill="#4E514D" transform="translate(331,99)"/>
<path d="M0 0 C2.15377564 2.62198774 3.40072174 4.64404172 4 8 C3.01 8 2.02 8 1 8 C-1.125 3.375 -1.125 3.375 0 0 Z " fill="#99D6B5" transform="translate(347,72)"/>
<path d="M0 0 C0.33 0.66 0.66 1.32 1 2 C0.22265625 3.7265625 0.22265625 3.7265625 -0.9375 5.625 C-1.618125 6.73875 -2.29875 7.8525 -3 9 C-3.33 9 -3.66 9 -4 9 C-4 7.02 -4 5.04 -4 3 C-3.01 3 -2.02 3 -1 3 C-0.67 2.01 -0.34 1.02 0 0 Z " fill="#A9E1C0" transform="translate(260,206)"/>
<path d="M0 0 C0.66 0.99 1.32 1.98 2 3 C1.34 3 0.68 3 0 3 C0.350625 3.598125 0.70125 4.19625 1.0625 4.8125 C2 7 2 7 1 10 C-2 3.25 -2 3.25 -2 1 C-1.34 0.67 -0.68 0.34 0 0 Z " fill="#8AD0A9" transform="translate(390,154)"/>
<path d="M0 0 C0.625 1.875 0.625 1.875 1 4 C0.34 4.66 -0.32 5.32 -1 6 C-1.99 5.67 -2.98 5.34 -4 5 C-2.25 1.125 -2.25 1.125 0 0 Z " fill="#8AD6B0" transform="translate(332,69)"/>
</svg>
